<svg width="40" height="40" viewBox="0 0 40 40" fill="none" xmlns="http://www.w3.org/2000/svg">
<path d="M10 32V29.3333C10 27 12.5 25.3333 12.5 25.3333C12.5 25.3333 14 24 17.3333 24H22.6666C26 24 27.5 25.3333 27.5 25.3333C27.5 25.3333 30 27 30 29.3333V32M14.6666 13.3333C14.6666 14.7478 15.2285 16.1044 16.2287 17.1046C17.2289 18.1048 18.5854 18.6667 19.9999 18.6667C21.4144 18.6667 22.771 18.1048 23.7712 17.1046C24.7713 16.1044 25.3333 14.7478 25.3333 13.3333C25.3333 11.9188 24.7713 10.5623 23.7712 9.5621C22.771 8.5619 21.4144 8 19.9999 8C18.5854 8 17.2289 8.5619 16.2287 9.5621C15.2285 10.5623 14.6666 11.9188 14.6666 13.3333Z" stroke="white" stroke-width="2.7" stroke-linecap="round" stroke-linejoin="round"/>
</svg>
